<mxfile host="65bd71144e">
    <diagram id="_wmzeyA2pHgwqkmctG8V" name="Pagina-1">
        <mxGraphModel dx="2059" dy="2000" grid="1" gridSize="10" guides="1" tooltips="1" connect="1" arrows="1" fold="1" page="1" pageScale="1" pageWidth="827" pageHeight="1169" math="0" shadow="0">
            <root>
                <mxCell id="0"/>
                <mxCell id="1" parent="0"/>
                <mxCell id="y2d1bEIamb3KJ__hVvuo-1" value="EC2 instance" style="shape=umlFrame;whiteSpace=wrap;html=1;" parent="1" vertex="1">
                    <mxGeometry x="-440" y="-50" width="620" height="460" as="geometry"/>
                </mxCell>
                <mxCell id="y2d1bEIamb3KJ__hVvuo-9" value="" style="group" parent="1" vertex="1" connectable="0">
                    <mxGeometry x="-413" y="-10" width="143" height="80" as="geometry"/>
                </mxCell>
                <mxCell id="y2d1bEIamb3KJ__hVvuo-6" value="Login" style="shape=umlFrame;whiteSpace=wrap;html=1;" parent="y2d1bEIamb3KJ__hVvuo-9" vertex="1">
                    <mxGeometry width="143" height="80" as="geometry"/>
                </mxCell>
                <mxCell id="y2d1bEIamb3KJ__hVvuo-7" value="" style="shape=image;verticalLabelPosition=bottom;labelBackgroundColor=default;verticalAlign=top;aspect=fixed;imageAspect=0;image=data:image/png,iVBORw0KGgoAAAANSUhEUgAAAQAAAAEACAMAAABrrFhUAAAAWlBMVEVHcExzq//Q4v5My/8yU8EzVMEzVME0VsE0VMEyU8EaLWcFFVlajuErSKUiOoQBByQAkM6nz/0JFUcCWJEFDTUDdrKhudv9/f57kbROdrlGXYsBAQEApuyE3f/7XhejAAAACnRSTlMA////w47/HUbo1TGOBwAAEIVJREFUeNrsnY1ioyoQhTfZbdKMgpGoFbf3/V/zMgMqJv6Bokk3093etnvb5nycmQE05Nevd7zjHe94xzve8Y53vOMd73jHO97xjne84x3veMc73vEOtzir+JwdHwN/5gb+tqcRrh75x8efJi53ccI3z6Bvvo/2V318EIsdxbfSL/j2oPtyat9dPLRb331PooWgMOwBoRHfCL8T6T3sk2ROhON0slAghK3VG7frIdor9mGg5Gv1Oyp/JEEMzlvJfy71OjGQQXgEjfzni4tGEDYRziT/9LShEQQd/meWbxAEy4NnH/6mMQQywQsMf2uCz39YfxgPUPqfXiawEKw//qfTKxH48/kv61+bwOvpX5fAK+qnOvC5Wv9/Qf1EYJ0Z0YvqX43A56v0/74Z0ee/mwCrWeCF9ROBfzcBKBb3wvNLG2CFJPh8bf1I4PNfNsBiC7y8AZZa4OMnAFhggc+Py+sDWGKBH5ABi+YC54+fAODknwPnH6HfPwfOPyIDlvSBj58CwDMHzj+gB2gCvgDCGYBhPHsRCFMCGOMQiSxJkkxEAHwLDr5FYOUSwLiSnqH0TmQIggcF4VsE1gLAULqwpGciSUQk2s/pa0IE4+AF4LzGNKjxezPaUMmyKJMk//6+5vntFomOKTLBghSBs18NvCzLdZSe1cKgqsqySI/HY/pfmWS37+u3CeQANaZMAWDPAcC7BtbaW+lq0NM0Pf6H8VuFVA64XpXuW57bHCBLMo79gT1DFfQB0NGO0stCSVdjbpSbyJPkdr0q9Uq0JqFAIAlIBA/QIb0AeHRBfqddjfq9dB2VSgEEcNXvFAV0g/osUg7gfHUCfm3AvQZy0g5Ge690HbcuAPogRwCqIgJ37gXoO+Aj+r3agEcTgCQBo/33aMgsye8B0DuRCHBshthoKNhYFfRywMXDAaXK99+ToRyQN+6vAdQOgDoHmIN6FXy4eHoBOHsBqI4z9GMN6HVALlTxMPNjhqLUh6PytXTgFScAQwS8+mBIALesxwH4Gc6UjAN4O7ID8vXgU6cpJMEaqp6bAcgSmJMBv/mQA7LGAWgAgBEEvFaPveYg8X8bLh5eANwngmw2gEcH6AmBWhGYIqgAcDVnrqAfAeU+MK1eRQxRBIMNVLWBrQCImQBEB8D1EQAm9eGQpkWph7qb3vQ1Xhr1CIBH0cii8nI5b7EdwpSDizkAAAHkNYC8AXBrAagRlSQtTTUCywSU/WDJ1wBgxALuAM6+ANK5DugHUMtQEmMjLi0kmDanfw3yqApL/qQDThs5QMwE0OuAqwUARULcyEtLQ4DV+mXa0W8AwOAsehsAJwWgdAVw7QOADuCWvrTgtQeYsf+hE7HuGpzv6oBT5AJAzf1utASyAIjaAbwLoCWA+f+ov3HAYA5sUgPIATNmQjFkEbZ+1F3vC9BMGGoA7B6AJqAsPqB/fQC/zhdPBwwC+I6vMr/hJpkKfLi4DdCAyDUA6HeAioJavc7/wyG4A7wAgMjkowPi+Eq6lfCMQrRBtbvhYBzAehygPCD1vLB6lK8cAAEAnHwA2IuBbxpw3BYVRjY+xkpWESoXduA/3PLGAX0ADqmeEhV9ACTpX7cGeADgQlSYAmbIUZlWroWXemvwmIKIrjr30RctCvzYWKAHwKFEAGWP/kN8Wh3AL08AUJHZMxx02uqvcEuU5uxml0gBQgD1XihtjkNjCASic92aB9SBvujTX5eAdQGcvACg3QU5mYTTlqjeHbNqgwKQm7pnQJAfuHZDpPNDzf+l7EKQ7fSwNwOGJ0I+KeAJgLxuCe9rChoATQNy0wEIAwjAzXHUHxk/KE2yFdpbAc00KIKxS43bOIAp/UUz5CPzAKwBeg6k3+k94WskwKQFZUVdK1mjFIYN0GQA2xcAT2csiNWjNZuAtAS61ath+nqbFjWGFoA8jFWAse3UbVKAqSFMZ8yFLQC3BwAmMWoK3AYQDyYAjJeArRygHsgMB8QNgLx1wJUAcLpgdKM1IhXJb15vDAwFtcApA2zmgCgq3FMgbwAIfb1EL5K1E2ACQFMAVgbg5YDTPADf8OAATSOKagAaCf5rNND6Gv0wR/9GDpgJIH50wCOAm/lwHECtf2w/bFsHQDnDASbXrU3hFoAl3gCAeML/MwywlQMA5+pzHDAEoDv6UwCaCdD4HGBDB8wGAO2WYHtthA8AGJIf6+Vh0wHGLqNt5ADsWcd5KTABoN4tHXZALHl3/Ecvpm7kAI771UUsc3ZjN46NTH2Qy2sc3zngZm8K1wCgB8ANtwLjvuE/ga1/6pL6Fg7Qu/mRuaAnok7QhofUHK662pvFUAPh2nRHqxHk9M1ywP66/tfjz/Z0ALeu1N+L74BQHBgVQb0XaDZGCEDdHXO7E+pvk732t8d/4m6CkA5g9m0K6jFVVSWlLFXE6q/6sKo4wB0Ia0O0BlEDoDunbl0AEesMv7TsD7NuKgrmAMagHdx6D6QnikKhuAMBemO4gUDGMH6gvzkVRp1UViHQs3+H4Q/ogPo2hvpewMlQHKqq6wfEYBaDt8YPdV7QRc8OgVh3fzf9gRxgRp/L8kHoAd8OZv+GPrvDICsOd2VS/X3ICzPTtwjYsz9t/zm3VAVxgC76srBVT8RDWvSUB9Klm+iN2//A7EsALsMfygH4SBr5B5ewDaEwlH1l8h4Li60EsMsfO+3kAE679O7qh/xQlrpfPDqCs2Z72DKA0z2lIRxgLtP7qu+1g+KgLKHbZynxXRnHvTvg4HZLbQAHcFr8L5Z/B+JwV0kfZoCs2f/iLreVB3AAXadcUf+ssAE43VO9vgPYwHXKjQC43lG9vgMAr9PtAEA214DCAphyAKMSeNgeQDxxI8BWDuC7ZAACGL8jcDMH8GjgQmVo/boI7O+AfTIACchtAEw4QF8D2sUBsr4v2um5ZWs7ABNxBwMQARi9J3QjB+xTAki/XgzsPQ+IdgTANwFwngQgF4vxBHCKxp4csY0DsAaWC8TLCp9OLqCKPQCoNuD85Lq1HcAiEcX+Y4/PEVYahPoPxO5tYPzG8M0c4A2gyvD5lcevr2NRiiSrXB3QVsH9VoN4R6QvAJ5k5VcTZZZU7gDcD51Y2QEIwHf8E1F8WVEIBwIGgHBfDwZwgGf5y7KOfkUgy2I3AFxEezsAhOB+ACAh/x9LUNmvUZQJeAAAt8nwyg5QBZx7GgBo1JO/KkR5JAJitgWaFHDeEljZAVHmCYCTAQqU/xeaQji7Ctw5YL8aAL4ABFUAIABFWwXA0QHCeSLwJA6IM3GsDdAC+BIi9gKwnwPUPLbyApCg70sNoCL74zuYWQTiDQH8mgLAFwP4Wx6PZeYC4JkckHimALQpQCFcUiA2i6EnqAGJdxHENUDSAqCmkEUuBoijJ3BAkixpg2WjPzlSG+QuAKR+TlLgNjgxE0wSv6mwpCLwVdUAqBNAIl0MIMX+DvAGcIj0VLikLIDCbSqsAbDGATuuBpNELFsMHYuyLOrFkHQqASxrAARdC1wmAHjuB3D/5XA9DWgO2ghbA8YAsMS3CuJ6UNgbImL+D6qbQCai8ClwngSQ+O4J4XFDeh1Y0KLYUb9Us7AINtgPGAVA5+YJp51xCbx5BiwdOgegfgrM/xlNCcgEbLErPPrkaXNwIJ9tgkotINuyITkeJZoJ7oLQAODbAJh49rgaQwA0wSwDx5VaPt7tfqIW92sCVAMz93nQ6g7AiUBRUR5MXdyIzXBDuexaWlsCPGrg6g7APqjWcnQ28JiRSX2ihl/JP64CgOMPgy0ujY2+trRqA1lxRASZYRD3iK/0ybqZqNTK97gMwH0GhL84OuoAbANalOpk5mhofL6AjCXaVKJ2LR4HH1GtBMA0wS0uj48foSHw8EQdRSU6h2TXRyRTnW/UrwSA6QyADe4RGgcAVARqBEXFhT5EujlYF41fWeoXAujJgPApMDUX7KhTi5sSnwui/nB9jPbxPtLl+tVayisDAhykZOXA3EhXMUAGHjeKBgCAM4HNANgG8OkBIQA85MAWAHhiDBAewHkSgHsOpGsZALjzCfQBDlPDPpBuAiCOu7NAn1ei8DlQceoZI4mZC20GgOlbi7YBMONARWFPBWbFQgOAdwXwc8BldQssTIAk8zZAEADuFkiX6Jd2AoQHMOdMUWcLLAEgI5MAfi/GE+ZUWWEWxQEBWAngXwFDAWA4GaqCFoG4twNsAWDesbrgmASpdwEQZiPZ99WowqQAw30RUYQCENv69SrQ1wCBAJyYysy/VaAcsPRHdQHwfjmyUCdLs8itDHjpxxlQskz/KdjZ4nSNqAyQA9b40wWIOedl7QCA0WQgW59A1/+Wfj8DhDtdnlEnmF8IU1f7d8bf+/UIPV9hYh6C9QlY+nGyZfQveD3GkK8xwqgQ/p1PwEV+zLP78d8yBWYers2oFcyuA6mj/TMBCwugMkBQAIZAsgoBe/hx1y3JPE5MeYywrzTFDIGqWEogvh9+M/+FZa/HGv6lthhVQrzzZQkBW35M19ta+/NFL8TpAeDsAoAhAbouONcEU/I10P/bO+PeRmEYinenchB6ZSpCqFu///c8EttJgG4rjhPIXd4q7Z9J2/v52dAtw8P2BybtlADdBV0fEoKZ/Y/u3St/G7yFk7lvcNOaGbMX5H1DCG5fuZ/sw5mDi5B9HoB6885R/VxF/ZM/tiJY2G8HP/0S/pkJ2Lh19gohQAT38TUEfxbu8aiBXPpxBiYAgG0Ak+Chj4X8+GejcdLbuvjOPvoPXsSszk0CAFck0OJ5kf4Tl8o8K/1tdALzHx0W3w+/0ApiHoCatXkaV83rFAAD0G38NdqHxa10/yRqA40+serDVZAJgEugay8Q5gkCbptZ60bm7RGjwWXf2hfRdBvAAVCxtq8TAruD/GF3zxuB67s5UAPH6B7YMs49pV9oC7s6cwCcmAAsAo8BgoCtU7BvbEA2VPrL2r3YAnJ9EeAkoGECcAj08zH7waewFq5limdfvxfkbN4+sQHA5cAh0OvWeiq6O0U3LK2DeXH3zIsA8zIwTwEw6HyPvX4cOu4EeOIe7LN/8SN4EZj8s4eAjwAZdG3Xfin8EmteWPpGmJOAUxiAq2NAEIBD19pX57yj+xe3zieYgWFTcPEWYQ5hIeddvvh2BPAS0HBuhb6DgCjo5SmWef4ICLgVetIKawrO+JW+KloAmCNAqAdmFKxTmvPxCh/eAboHKqV+Zy7FB1DL9MDeANgdgD2g/tsAiI3BvQPQBCQg+wiEBeAfmAJBAYApkDWBwAAYADk3gfYfBiDzCIQ2AM3BXAlAA4QByLkJlEAAbBOobP2HAqhzJSDkH8dAhgS0/0bCvwGQHYGp/mch/zgI8yKgqP4iBOrsCJB/oQB4XaDysC/t3xLIIgQx/BsC+o4ogxDA+JP2jxk4fAh09XX55f1TBmASqGOnP4p/j8AxEaio5V8iMAzU4dzb8kcCQARsDF78n5IE5o372PYJgWFQ2RwAB5XeN1qfzCtyH9u+H4IlhHR5IN8KK0/mU9ifpwAgVJVHIT4D5QAY72Qe7Avd/b/w5sAhIBKGRTI11ey713Wi6vsEDIUlh+Sqrft0/v1WIArmBZ9j23UfTundLyHsp928z1viNP+Zkvg+hPeioqKioqKioqKioqKioqKioqKioqz0F87mVSWmW+UFAAAAAElFTkSuQmCC;" parent="y2d1bEIamb3KJ__hVvuo-9" vertex="1">
                    <mxGeometry x="73" y="20" width="52.17" height="52.17" as="geometry"/>
                </mxCell>
                <mxCell id="y2d1bEIamb3KJ__hVvuo-10" value="" style="group" parent="1" vertex="1" connectable="0">
                    <mxGeometry x="-230" y="-10" width="143" height="80" as="geometry"/>
                </mxCell>
                <mxCell id="y2d1bEIamb3KJ__hVvuo-11" value="Frontend" style="shape=umlFrame;whiteSpace=wrap;html=1;" parent="y2d1bEIamb3KJ__hVvuo-10" vertex="1">
                    <mxGeometry width="143" height="80" as="geometry"/>
                </mxCell>
                <mxCell id="y2d1bEIamb3KJ__hVvuo-12" value="" style="shape=image;verticalLabelPosition=bottom;labelBackgroundColor=default;verticalAlign=top;aspect=fixed;imageAspect=0;image=data:image/png,iVBORw0KGgoAAAANSUhEUgAAAQAAAAEACAMAAABrrFhUAAAAWlBMVEVHcExzq//Q4v5My/8yU8EzVMEzVME0VsE0VMEyU8EaLWcFFVlajuErSKUiOoQBByQAkM6nz/0JFUcCWJEFDTUDdrKhudv9/f57kbROdrlGXYsBAQEApuyE3f/7XhejAAAACnRSTlMA////w47/HUbo1TGOBwAAEIVJREFUeNrsnY1ioyoQhTfZbdKMgpGoFbf3/V/zMgMqJv6Bokk3093etnvb5nycmQE05Nevd7zjHe94xzve8Y53vOMd73jHO97xjne84x3veMc73vEOtzir+JwdHwN/5gb+tqcRrh75x8efJi53ccI3z6Bvvo/2V318EIsdxbfSL/j2oPtyat9dPLRb331PooWgMOwBoRHfCL8T6T3sk2ROhON0slAghK3VG7frIdor9mGg5Gv1Oyp/JEEMzlvJfy71OjGQQXgEjfzni4tGEDYRziT/9LShEQQd/meWbxAEy4NnH/6mMQQywQsMf2uCz39YfxgPUPqfXiawEKw//qfTKxH48/kv61+bwOvpX5fAK+qnOvC5Wv9/Qf1EYJ0Z0YvqX43A56v0/74Z0ee/mwCrWeCF9ROBfzcBKBb3wvNLG2CFJPh8bf1I4PNfNsBiC7y8AZZa4OMnAFhggc+Py+sDWGKBH5ABi+YC54+fAODknwPnH6HfPwfOPyIDlvSBj58CwDMHzj+gB2gCvgDCGYBhPHsRCFMCGOMQiSxJkkxEAHwLDr5FYOUSwLiSnqH0TmQIggcF4VsE1gLAULqwpGciSUQk2s/pa0IE4+AF4LzGNKjxezPaUMmyKJMk//6+5vntFomOKTLBghSBs18NvCzLdZSe1cKgqsqySI/HY/pfmWS37+u3CeQANaZMAWDPAcC7BtbaW+lq0NM0Pf6H8VuFVA64XpXuW57bHCBLMo79gT1DFfQB0NGO0stCSVdjbpSbyJPkdr0q9Uq0JqFAIAlIBA/QIb0AeHRBfqddjfq9dB2VSgEEcNXvFAV0g/osUg7gfHUCfm3AvQZy0g5Ge690HbcuAPogRwCqIgJ37gXoO+Aj+r3agEcTgCQBo/33aMgsye8B0DuRCHBshthoKNhYFfRywMXDAaXK99+ToRyQN+6vAdQOgDoHmIN6FXy4eHoBOHsBqI4z9GMN6HVALlTxMPNjhqLUh6PytXTgFScAQwS8+mBIALesxwH4Gc6UjAN4O7ID8vXgU6cpJMEaqp6bAcgSmJMBv/mQA7LGAWgAgBEEvFaPveYg8X8bLh5eANwngmw2gEcH6AmBWhGYIqgAcDVnrqAfAeU+MK1eRQxRBIMNVLWBrQCImQBEB8D1EQAm9eGQpkWph7qb3vQ1Xhr1CIBH0cii8nI5b7EdwpSDizkAAAHkNYC8AXBrAagRlSQtTTUCywSU/WDJ1wBgxALuAM6+ANK5DugHUMtQEmMjLi0kmDanfw3yqApL/qQDThs5QMwE0OuAqwUARULcyEtLQ4DV+mXa0W8AwOAsehsAJwWgdAVw7QOADuCWvrTgtQeYsf+hE7HuGpzv6oBT5AJAzf1utASyAIjaAbwLoCWA+f+ov3HAYA5sUgPIATNmQjFkEbZ+1F3vC9BMGGoA7B6AJqAsPqB/fQC/zhdPBwwC+I6vMr/hJpkKfLi4DdCAyDUA6HeAioJavc7/wyG4A7wAgMjkowPi+Eq6lfCMQrRBtbvhYBzAehygPCD1vLB6lK8cAAEAnHwA2IuBbxpw3BYVRjY+xkpWESoXduA/3PLGAX0ADqmeEhV9ACTpX7cGeADgQlSYAmbIUZlWroWXemvwmIKIrjr30RctCvzYWKAHwKFEAGWP/kN8Wh3AL08AUJHZMxx02uqvcEuU5uxml0gBQgD1XihtjkNjCASic92aB9SBvujTX5eAdQGcvACg3QU5mYTTlqjeHbNqgwKQm7pnQJAfuHZDpPNDzf+l7EKQ7fSwNwOGJ0I+KeAJgLxuCe9rChoATQNy0wEIAwjAzXHUHxk/KE2yFdpbAc00KIKxS43bOIAp/UUz5CPzAKwBeg6k3+k94WskwKQFZUVdK1mjFIYN0GQA2xcAT2csiNWjNZuAtAS61ath+nqbFjWGFoA8jFWAse3UbVKAqSFMZ8yFLQC3BwAmMWoK3AYQDyYAjJeArRygHsgMB8QNgLx1wJUAcLpgdKM1IhXJb15vDAwFtcApA2zmgCgq3FMgbwAIfb1EL5K1E2ACQFMAVgbg5YDTPADf8OAATSOKagAaCf5rNND6Gv0wR/9GDpgJIH50wCOAm/lwHECtf2w/bFsHQDnDASbXrU3hFoAl3gCAeML/MwywlQMA5+pzHDAEoDv6UwCaCdD4HGBDB8wGAO2WYHtthA8AGJIf6+Vh0wHGLqNt5ADsWcd5KTABoN4tHXZALHl3/Ecvpm7kAI771UUsc3ZjN46NTH2Qy2sc3zngZm8K1wCgB8ANtwLjvuE/ga1/6pL6Fg7Qu/mRuaAnok7QhofUHK662pvFUAPh2nRHqxHk9M1ywP66/tfjz/Z0ALeu1N+L74BQHBgVQb0XaDZGCEDdHXO7E+pvk732t8d/4m6CkA5g9m0K6jFVVSWlLFXE6q/6sKo4wB0Ia0O0BlEDoDunbl0AEesMv7TsD7NuKgrmAMagHdx6D6QnikKhuAMBemO4gUDGMH6gvzkVRp1UViHQs3+H4Q/ogPo2hvpewMlQHKqq6wfEYBaDt8YPdV7QRc8OgVh3fzf9gRxgRp/L8kHoAd8OZv+GPrvDICsOd2VS/X3ICzPTtwjYsz9t/zm3VAVxgC76srBVT8RDWvSUB9Klm+iN2//A7EsALsMfygH4SBr5B5ewDaEwlH1l8h4Li60EsMsfO+3kAE679O7qh/xQlrpfPDqCs2Z72DKA0z2lIRxgLtP7qu+1g+KgLKHbZynxXRnHvTvg4HZLbQAHcFr8L5Z/B+JwV0kfZoCs2f/iLreVB3AAXadcUf+ssAE43VO9vgPYwHXKjQC43lG9vgMAr9PtAEA214DCAphyAKMSeNgeQDxxI8BWDuC7ZAACGL8jcDMH8GjgQmVo/boI7O+AfTIACchtAEw4QF8D2sUBsr4v2um5ZWs7ABNxBwMQARi9J3QjB+xTAki/XgzsPQ+IdgTANwFwngQgF4vxBHCKxp4csY0DsAaWC8TLCp9OLqCKPQCoNuD85Lq1HcAiEcX+Y4/PEVYahPoPxO5tYPzG8M0c4A2gyvD5lcevr2NRiiSrXB3QVsH9VoN4R6QvAJ5k5VcTZZZU7gDcD51Y2QEIwHf8E1F8WVEIBwIGgHBfDwZwgGf5y7KOfkUgy2I3AFxEezsAhOB+ACAh/x9LUNmvUZQJeAAAt8nwyg5QBZx7GgBo1JO/KkR5JAJitgWaFHDeEljZAVHmCYCTAQqU/xeaQji7Ctw5YL8aAL4ABFUAIABFWwXA0QHCeSLwJA6IM3GsDdAC+BIi9gKwnwPUPLbyApCg70sNoCL74zuYWQTiDQH8mgLAFwP4Wx6PZeYC4JkckHimALQpQCFcUiA2i6EnqAGJdxHENUDSAqCmkEUuBoijJ3BAkixpg2WjPzlSG+QuAKR+TlLgNjgxE0wSv6mwpCLwVdUAqBNAIl0MIMX+DvAGcIj0VLikLIDCbSqsAbDGATuuBpNELFsMHYuyLOrFkHQqASxrAARdC1wmAHjuB3D/5XA9DWgO2ghbA8YAsMS3CuJ6UNgbImL+D6qbQCai8ClwngSQ+O4J4XFDeh1Y0KLYUb9Us7AINtgPGAVA5+YJp51xCbx5BiwdOgegfgrM/xlNCcgEbLErPPrkaXNwIJ9tgkotINuyITkeJZoJ7oLQAODbAJh49rgaQwA0wSwDx5VaPt7tfqIW92sCVAMz93nQ6g7AiUBRUR5MXdyIzXBDuexaWlsCPGrg6g7APqjWcnQ28JiRSX2ihl/JP64CgOMPgy0ujY2+trRqA1lxRASZYRD3iK/0ybqZqNTK97gMwH0GhL84OuoAbANalOpk5mhofL6AjCXaVKJ2LR4HH1GtBMA0wS0uj48foSHw8EQdRSU6h2TXRyRTnW/UrwSA6QyADe4RGgcAVARqBEXFhT5EujlYF41fWeoXAujJgPApMDUX7KhTi5sSnwui/nB9jPbxPtLl+tVayisDAhykZOXA3EhXMUAGHjeKBgCAM4HNANgG8OkBIQA85MAWAHhiDBAewHkSgHsOpGsZALjzCfQBDlPDPpBuAiCOu7NAn1ei8DlQceoZI4mZC20GgOlbi7YBMONARWFPBWbFQgOAdwXwc8BldQssTIAk8zZAEADuFkiX6Jd2AoQHMOdMUWcLLAEgI5MAfi/GE+ZUWWEWxQEBWAngXwFDAWA4GaqCFoG4twNsAWDesbrgmASpdwEQZiPZ99WowqQAw30RUYQCENv69SrQ1wCBAJyYysy/VaAcsPRHdQHwfjmyUCdLs8itDHjpxxlQskz/KdjZ4nSNqAyQA9b40wWIOedl7QCA0WQgW59A1/+Wfj8DhDtdnlEnmF8IU1f7d8bf+/UIPV9hYh6C9QlY+nGyZfQveD3GkK8xwqgQ/p1PwEV+zLP78d8yBWYers2oFcyuA6mj/TMBCwugMkBQAIZAsgoBe/hx1y3JPE5MeYywrzTFDIGqWEogvh9+M/+FZa/HGv6lthhVQrzzZQkBW35M19ta+/NFL8TpAeDsAoAhAbouONcEU/I10P/bO+PeRmEYinenchB6ZSpCqFu///c8EttJgG4rjhPIXd4q7Z9J2/v52dAtw8P2BybtlADdBV0fEoKZ/Y/u3St/G7yFk7lvcNOaGbMX5H1DCG5fuZ/sw5mDi5B9HoB6885R/VxF/ZM/tiJY2G8HP/0S/pkJ2Lh19gohQAT38TUEfxbu8aiBXPpxBiYAgG0Ak+Chj4X8+GejcdLbuvjOPvoPXsSszk0CAFck0OJ5kf4Tl8o8K/1tdALzHx0W3w+/0ApiHoCatXkaV83rFAAD0G38NdqHxa10/yRqA40+serDVZAJgEugay8Q5gkCbptZ60bm7RGjwWXf2hfRdBvAAVCxtq8TAruD/GF3zxuB67s5UAPH6B7YMs49pV9oC7s6cwCcmAAsAo8BgoCtU7BvbEA2VPrL2r3YAnJ9EeAkoGECcAj08zH7waewFq5limdfvxfkbN4+sQHA5cAh0OvWeiq6O0U3LK2DeXH3zIsA8zIwTwEw6HyPvX4cOu4EeOIe7LN/8SN4EZj8s4eAjwAZdG3Xfin8EmteWPpGmJOAUxiAq2NAEIBD19pX57yj+xe3zieYgWFTcPEWYQ5hIeddvvh2BPAS0HBuhb6DgCjo5SmWef4ICLgVetIKawrO+JW+KloAmCNAqAdmFKxTmvPxCh/eAboHKqV+Zy7FB1DL9MDeANgdgD2g/tsAiI3BvQPQBCQg+wiEBeAfmAJBAYApkDWBwAAYADk3gfYfBiDzCIQ2AM3BXAlAA4QByLkJlEAAbBOobP2HAqhzJSDkH8dAhgS0/0bCvwGQHYGp/mch/zgI8yKgqP4iBOrsCJB/oQB4XaDysC/t3xLIIgQx/BsC+o4ogxDA+JP2jxk4fAh09XX55f1TBmASqGOnP4p/j8AxEaio5V8iMAzU4dzb8kcCQARsDF78n5IE5o372PYJgWFQ2RwAB5XeN1qfzCtyH9u+H4IlhHR5IN8KK0/mU9ifpwAgVJVHIT4D5QAY72Qe7Avd/b/w5sAhIBKGRTI11ey713Wi6vsEDIUlh+Sqrft0/v1WIArmBZ9j23UfTundLyHsp928z1viNP+Zkvg+hPeioqKioqKioqKioqKioqKioqKioqz0F87mVSWmW+UFAAAAAElFTkSuQmCC;" parent="y2d1bEIamb3KJ__hVvuo-10" vertex="1">
                    <mxGeometry x="73" y="20" width="52.17" height="52.17" as="geometry"/>
                </mxCell>
                <mxCell id="y2d1bEIamb3KJ__hVvuo-13" value="" style="group" parent="1" vertex="1" connectable="0">
                    <mxGeometry x="-40" y="-10" width="143" height="80" as="geometry"/>
                </mxCell>
                <mxCell id="y2d1bEIamb3KJ__hVvuo-14" value="Compr." style="shape=umlFrame;whiteSpace=wrap;html=1;" parent="y2d1bEIamb3KJ__hVvuo-13" vertex="1">
                    <mxGeometry width="143" height="80" as="geometry"/>
                </mxCell>
                <mxCell id="y2d1bEIamb3KJ__hVvuo-15" value="" style="shape=image;verticalLabelPosition=bottom;labelBackgroundColor=default;verticalAlign=top;aspect=fixed;imageAspect=0;image=data:image/png,iVBORw0KGgoAAAANSUhEUgAAAQAAAAEACAMAAABrrFhUAAAAWlBMVEVHcExzq//Q4v5My/8yU8EzVMEzVME0VsE0VMEyU8EaLWcFFVlajuErSKUiOoQBByQAkM6nz/0JFUcCWJEFDTUDdrKhudv9/f57kbROdrlGXYsBAQEApuyE3f/7XhejAAAACnRSTlMA////w47/HUbo1TGOBwAAEIVJREFUeNrsnY1ioyoQhTfZbdKMgpGoFbf3/V/zMgMqJv6Bokk3093etnvb5nycmQE05Nevd7zjHe94xzve8Y53vOMd73jHO97xjne84x3veMc73vEOtzir+JwdHwN/5gb+tqcRrh75x8efJi53ccI3z6Bvvo/2V318EIsdxbfSL/j2oPtyat9dPLRb331PooWgMOwBoRHfCL8T6T3sk2ROhON0slAghK3VG7frIdor9mGg5Gv1Oyp/JEEMzlvJfy71OjGQQXgEjfzni4tGEDYRziT/9LShEQQd/meWbxAEy4NnH/6mMQQywQsMf2uCz39YfxgPUPqfXiawEKw//qfTKxH48/kv61+bwOvpX5fAK+qnOvC5Wv9/Qf1EYJ0Z0YvqX43A56v0/74Z0ee/mwCrWeCF9ROBfzcBKBb3wvNLG2CFJPh8bf1I4PNfNsBiC7y8AZZa4OMnAFhggc+Py+sDWGKBH5ABi+YC54+fAODknwPnH6HfPwfOPyIDlvSBj58CwDMHzj+gB2gCvgDCGYBhPHsRCFMCGOMQiSxJkkxEAHwLDr5FYOUSwLiSnqH0TmQIggcF4VsE1gLAULqwpGciSUQk2s/pa0IE4+AF4LzGNKjxezPaUMmyKJMk//6+5vntFomOKTLBghSBs18NvCzLdZSe1cKgqsqySI/HY/pfmWS37+u3CeQANaZMAWDPAcC7BtbaW+lq0NM0Pf6H8VuFVA64XpXuW57bHCBLMo79gT1DFfQB0NGO0stCSVdjbpSbyJPkdr0q9Uq0JqFAIAlIBA/QIb0AeHRBfqddjfq9dB2VSgEEcNXvFAV0g/osUg7gfHUCfm3AvQZy0g5Ge690HbcuAPogRwCqIgJ37gXoO+Aj+r3agEcTgCQBo/33aMgsye8B0DuRCHBshthoKNhYFfRywMXDAaXK99+ToRyQN+6vAdQOgDoHmIN6FXy4eHoBOHsBqI4z9GMN6HVALlTxMPNjhqLUh6PytXTgFScAQwS8+mBIALesxwH4Gc6UjAN4O7ID8vXgU6cpJMEaqp6bAcgSmJMBv/mQA7LGAWgAgBEEvFaPveYg8X8bLh5eANwngmw2gEcH6AmBWhGYIqgAcDVnrqAfAeU+MK1eRQxRBIMNVLWBrQCImQBEB8D1EQAm9eGQpkWph7qb3vQ1Xhr1CIBH0cii8nI5b7EdwpSDizkAAAHkNYC8AXBrAagRlSQtTTUCywSU/WDJ1wBgxALuAM6+ANK5DugHUMtQEmMjLi0kmDanfw3yqApL/qQDThs5QMwE0OuAqwUARULcyEtLQ4DV+mXa0W8AwOAsehsAJwWgdAVw7QOADuCWvrTgtQeYsf+hE7HuGpzv6oBT5AJAzf1utASyAIjaAbwLoCWA+f+ov3HAYA5sUgPIATNmQjFkEbZ+1F3vC9BMGGoA7B6AJqAsPqB/fQC/zhdPBwwC+I6vMr/hJpkKfLi4DdCAyDUA6HeAioJavc7/wyG4A7wAgMjkowPi+Eq6lfCMQrRBtbvhYBzAehygPCD1vLB6lK8cAAEAnHwA2IuBbxpw3BYVRjY+xkpWESoXduA/3PLGAX0ADqmeEhV9ACTpX7cGeADgQlSYAmbIUZlWroWXemvwmIKIrjr30RctCvzYWKAHwKFEAGWP/kN8Wh3AL08AUJHZMxx02uqvcEuU5uxml0gBQgD1XihtjkNjCASic92aB9SBvujTX5eAdQGcvACg3QU5mYTTlqjeHbNqgwKQm7pnQJAfuHZDpPNDzf+l7EKQ7fSwNwOGJ0I+KeAJgLxuCe9rChoATQNy0wEIAwjAzXHUHxk/KE2yFdpbAc00KIKxS43bOIAp/UUz5CPzAKwBeg6k3+k94WskwKQFZUVdK1mjFIYN0GQA2xcAT2csiNWjNZuAtAS61ath+nqbFjWGFoA8jFWAse3UbVKAqSFMZ8yFLQC3BwAmMWoK3AYQDyYAjJeArRygHsgMB8QNgLx1wJUAcLpgdKM1IhXJb15vDAwFtcApA2zmgCgq3FMgbwAIfb1EL5K1E2ACQFMAVgbg5YDTPADf8OAATSOKagAaCf5rNND6Gv0wR/9GDpgJIH50wCOAm/lwHECtf2w/bFsHQDnDASbXrU3hFoAl3gCAeML/MwywlQMA5+pzHDAEoDv6UwCaCdD4HGBDB8wGAO2WYHtthA8AGJIf6+Vh0wHGLqNt5ADsWcd5KTABoN4tHXZALHl3/Ecvpm7kAI771UUsc3ZjN46NTH2Qy2sc3zngZm8K1wCgB8ANtwLjvuE/ga1/6pL6Fg7Qu/mRuaAnok7QhofUHK662pvFUAPh2nRHqxHk9M1ywP66/tfjz/Z0ALeu1N+L74BQHBgVQb0XaDZGCEDdHXO7E+pvk732t8d/4m6CkA5g9m0K6jFVVSWlLFXE6q/6sKo4wB0Ia0O0BlEDoDunbl0AEesMv7TsD7NuKgrmAMagHdx6D6QnikKhuAMBemO4gUDGMH6gvzkVRp1UViHQs3+H4Q/ogPo2hvpewMlQHKqq6wfEYBaDt8YPdV7QRc8OgVh3fzf9gRxgRp/L8kHoAd8OZv+GPrvDICsOd2VS/X3ICzPTtwjYsz9t/zm3VAVxgC76srBVT8RDWvSUB9Klm+iN2//A7EsALsMfygH4SBr5B5ewDaEwlH1l8h4Li60EsMsfO+3kAE679O7qh/xQlrpfPDqCs2Z72DKA0z2lIRxgLtP7qu+1g+KgLKHbZynxXRnHvTvg4HZLbQAHcFr8L5Z/B+JwV0kfZoCs2f/iLreVB3AAXadcUf+ssAE43VO9vgPYwHXKjQC43lG9vgMAr9PtAEA214DCAphyAKMSeNgeQDxxI8BWDuC7ZAACGL8jcDMH8GjgQmVo/boI7O+AfTIACchtAEw4QF8D2sUBsr4v2um5ZWs7ABNxBwMQARi9J3QjB+xTAki/XgzsPQ+IdgTANwFwngQgF4vxBHCKxp4csY0DsAaWC8TLCp9OLqCKPQCoNuD85Lq1HcAiEcX+Y4/PEVYahPoPxO5tYPzG8M0c4A2gyvD5lcevr2NRiiSrXB3QVsH9VoN4R6QvAJ5k5VcTZZZU7gDcD51Y2QEIwHf8E1F8WVEIBwIGgHBfDwZwgGf5y7KOfkUgy2I3AFxEezsAhOB+ACAh/x9LUNmvUZQJeAAAt8nwyg5QBZx7GgBo1JO/KkR5JAJitgWaFHDeEljZAVHmCYCTAQqU/xeaQji7Ctw5YL8aAL4ABFUAIABFWwXA0QHCeSLwJA6IM3GsDdAC+BIi9gKwnwPUPLbyApCg70sNoCL74zuYWQTiDQH8mgLAFwP4Wx6PZeYC4JkckHimALQpQCFcUiA2i6EnqAGJdxHENUDSAqCmkEUuBoijJ3BAkixpg2WjPzlSG+QuAKR+TlLgNjgxE0wSv6mwpCLwVdUAqBNAIl0MIMX+DvAGcIj0VLikLIDCbSqsAbDGATuuBpNELFsMHYuyLOrFkHQqASxrAARdC1wmAHjuB3D/5XA9DWgO2ghbA8YAsMS3CuJ6UNgbImL+D6qbQCai8ClwngSQ+O4J4XFDeh1Y0KLYUb9Us7AINtgPGAVA5+YJp51xCbx5BiwdOgegfgrM/xlNCcgEbLErPPrkaXNwIJ9tgkotINuyITkeJZoJ7oLQAODbAJh49rgaQwA0wSwDx5VaPt7tfqIW92sCVAMz93nQ6g7AiUBRUR5MXdyIzXBDuexaWlsCPGrg6g7APqjWcnQ28JiRSX2ihl/JP64CgOMPgy0ujY2+trRqA1lxRASZYRD3iK/0ybqZqNTK97gMwH0GhL84OuoAbANalOpk5mhofL6AjCXaVKJ2LR4HH1GtBMA0wS0uj48foSHw8EQdRSU6h2TXRyRTnW/UrwSA6QyADe4RGgcAVARqBEXFhT5EujlYF41fWeoXAujJgPApMDUX7KhTi5sSnwui/nB9jPbxPtLl+tVayisDAhykZOXA3EhXMUAGHjeKBgCAM4HNANgG8OkBIQA85MAWAHhiDBAewHkSgHsOpGsZALjzCfQBDlPDPpBuAiCOu7NAn1ei8DlQceoZI4mZC20GgOlbi7YBMONARWFPBWbFQgOAdwXwc8BldQssTIAk8zZAEADuFkiX6Jd2AoQHMOdMUWcLLAEgI5MAfi/GE+ZUWWEWxQEBWAngXwFDAWA4GaqCFoG4twNsAWDesbrgmASpdwEQZiPZ99WowqQAw30RUYQCENv69SrQ1wCBAJyYysy/VaAcsPRHdQHwfjmyUCdLs8itDHjpxxlQskz/KdjZ4nSNqAyQA9b40wWIOedl7QCA0WQgW59A1/+Wfj8DhDtdnlEnmF8IU1f7d8bf+/UIPV9hYh6C9QlY+nGyZfQveD3GkK8xwqgQ/p1PwEV+zLP78d8yBWYers2oFcyuA6mj/TMBCwugMkBQAIZAsgoBe/hx1y3JPE5MeYywrzTFDIGqWEogvh9+M/+FZa/HGv6lthhVQrzzZQkBW35M19ta+/NFL8TpAeDsAoAhAbouONcEU/I10P/bO+PeRmEYinenchB6ZSpCqFu///c8EttJgG4rjhPIXd4q7Z9J2/v52dAtw8P2BybtlADdBV0fEoKZ/Y/u3St/G7yFk7lvcNOaGbMX5H1DCG5fuZ/sw5mDi5B9HoB6885R/VxF/ZM/tiJY2G8HP/0S/pkJ2Lh19gohQAT38TUEfxbu8aiBXPpxBiYAgG0Ak+Chj4X8+GejcdLbuvjOPvoPXsSszk0CAFck0OJ5kf4Tl8o8K/1tdALzHx0W3w+/0ApiHoCatXkaV83rFAAD0G38NdqHxa10/yRqA40+serDVZAJgEugay8Q5gkCbptZ60bm7RGjwWXf2hfRdBvAAVCxtq8TAruD/GF3zxuB67s5UAPH6B7YMs49pV9oC7s6cwCcmAAsAo8BgoCtU7BvbEA2VPrL2r3YAnJ9EeAkoGECcAj08zH7waewFq5limdfvxfkbN4+sQHA5cAh0OvWeiq6O0U3LK2DeXH3zIsA8zIwTwEw6HyPvX4cOu4EeOIe7LN/8SN4EZj8s4eAjwAZdG3Xfin8EmteWPpGmJOAUxiAq2NAEIBD19pX57yj+xe3zieYgWFTcPEWYQ5hIeddvvh2BPAS0HBuhb6DgCjo5SmWef4ICLgVetIKawrO+JW+KloAmCNAqAdmFKxTmvPxCh/eAboHKqV+Zy7FB1DL9MDeANgdgD2g/tsAiI3BvQPQBCQg+wiEBeAfmAJBAYApkDWBwAAYADk3gfYfBiDzCIQ2AM3BXAlAA4QByLkJlEAAbBOobP2HAqhzJSDkH8dAhgS0/0bCvwGQHYGp/mch/zgI8yKgqP4iBOrsCJB/oQB4XaDysC/t3xLIIgQx/BsC+o4ogxDA+JP2jxk4fAh09XX55f1TBmASqGOnP4p/j8AxEaio5V8iMAzU4dzb8kcCQARsDF78n5IE5o372PYJgWFQ2RwAB5XeN1qfzCtyH9u+H4IlhHR5IN8KK0/mU9ifpwAgVJVHIT4D5QAY72Qe7Avd/b/w5sAhIBKGRTI11ey713Wi6vsEDIUlh+Sqrft0/v1WIArmBZ9j23UfTundLyHsp928z1viNP+Zkvg+hPeioqKioqKioqKioqKioqKioqKioqz0F87mVSWmW+UFAAAAAElFTkSuQmCC;" parent="y2d1bEIamb3KJ__hVvuo-13" vertex="1">
                    <mxGeometry x="73" y="20" width="52.17" height="52.17" as="geometry"/>
                </mxCell>
                <mxCell id="y2d1bEIamb3KJ__hVvuo-19" value="" style="group" parent="1" vertex="1" connectable="0">
                    <mxGeometry x="-413" y="240" width="143" height="80" as="geometry"/>
                </mxCell>
                <mxCell id="y2d1bEIamb3KJ__hVvuo-20" value="Chatbot" style="shape=umlFrame;whiteSpace=wrap;html=1;" parent="y2d1bEIamb3KJ__hVvuo-19" vertex="1">
                    <mxGeometry width="143" height="80" as="geometry"/>
                </mxCell>
                <mxCell id="y2d1bEIamb3KJ__hVvuo-21" value="" style="shape=image;verticalLabelPosition=bottom;labelBackgroundColor=default;verticalAlign=top;aspect=fixed;imageAspect=0;image=data:image/png,iVBORw0KGgoAAAANSUhEUgAAAQAAAAEACAMAAABrrFhUAAAAWlBMVEVHcExzq//Q4v5My/8yU8EzVMEzVME0VsE0VMEyU8EaLWcFFVlajuErSKUiOoQBByQAkM6nz/0JFUcCWJEFDTUDdrKhudv9/f57kbROdrlGXYsBAQEApuyE3f/7XhejAAAACnRSTlMA////w47/HUbo1TGOBwAAEIVJREFUeNrsnY1ioyoQhTfZbdKMgpGoFbf3/V/zMgMqJv6Bokk3093etnvb5nycmQE05Nevd7zjHe94xzve8Y53vOMd73jHO97xjne84x3veMc73vEOtzir+JwdHwN/5gb+tqcRrh75x8efJi53ccI3z6Bvvo/2V318EIsdxbfSL/j2oPtyat9dPLRb331PooWgMOwBoRHfCL8T6T3sk2ROhON0slAghK3VG7frIdor9mGg5Gv1Oyp/JEEMzlvJfy71OjGQQXgEjfzni4tGEDYRziT/9LShEQQd/meWbxAEy4NnH/6mMQQywQsMf2uCz39YfxgPUPqfXiawEKw//qfTKxH48/kv61+bwOvpX5fAK+qnOvC5Wv9/Qf1EYJ0Z0YvqX43A56v0/74Z0ee/mwCrWeCF9ROBfzcBKBb3wvNLG2CFJPh8bf1I4PNfNsBiC7y8AZZa4OMnAFhggc+Py+sDWGKBH5ABi+YC54+fAODknwPnH6HfPwfOPyIDlvSBj58CwDMHzj+gB2gCvgDCGYBhPHsRCFMCGOMQiSxJkkxEAHwLDr5FYOUSwLiSnqH0TmQIggcF4VsE1gLAULqwpGciSUQk2s/pa0IE4+AF4LzGNKjxezPaUMmyKJMk//6+5vntFomOKTLBghSBs18NvCzLdZSe1cKgqsqySI/HY/pfmWS37+u3CeQANaZMAWDPAcC7BtbaW+lq0NM0Pf6H8VuFVA64XpXuW57bHCBLMo79gT1DFfQB0NGO0stCSVdjbpSbyJPkdr0q9Uq0JqFAIAlIBA/QIb0AeHRBfqddjfq9dB2VSgEEcNXvFAV0g/osUg7gfHUCfm3AvQZy0g5Ge690HbcuAPogRwCqIgJ37gXoO+Aj+r3agEcTgCQBo/33aMgsye8B0DuRCHBshthoKNhYFfRywMXDAaXK99+ToRyQN+6vAdQOgDoHmIN6FXy4eHoBOHsBqI4z9GMN6HVALlTxMPNjhqLUh6PytXTgFScAQwS8+mBIALesxwH4Gc6UjAN4O7ID8vXgU6cpJMEaqp6bAcgSmJMBv/mQA7LGAWgAgBEEvFaPveYg8X8bLh5eANwngmw2gEcH6AmBWhGYIqgAcDVnrqAfAeU+MK1eRQxRBIMNVLWBrQCImQBEB8D1EQAm9eGQpkWph7qb3vQ1Xhr1CIBH0cii8nI5b7EdwpSDizkAAAHkNYC8AXBrAagRlSQtTTUCywSU/WDJ1wBgxALuAM6+ANK5DugHUMtQEmMjLi0kmDanfw3yqApL/qQDThs5QMwE0OuAqwUARULcyEtLQ4DV+mXa0W8AwOAsehsAJwWgdAVw7QOADuCWvrTgtQeYsf+hE7HuGpzv6oBT5AJAzf1utASyAIjaAbwLoCWA+f+ov3HAYA5sUgPIATNmQjFkEbZ+1F3vC9BMGGoA7B6AJqAsPqB/fQC/zhdPBwwC+I6vMr/hJpkKfLi4DdCAyDUA6HeAioJavc7/wyG4A7wAgMjkowPi+Eq6lfCMQrRBtbvhYBzAehygPCD1vLB6lK8cAAEAnHwA2IuBbxpw3BYVRjY+xkpWESoXduA/3PLGAX0ADqmeEhV9ACTpX7cGeADgQlSYAmbIUZlWroWXemvwmIKIrjr30RctCvzYWKAHwKFEAGWP/kN8Wh3AL08AUJHZMxx02uqvcEuU5uxml0gBQgD1XihtjkNjCASic92aB9SBvujTX5eAdQGcvACg3QU5mYTTlqjeHbNqgwKQm7pnQJAfuHZDpPNDzf+l7EKQ7fSwNwOGJ0I+KeAJgLxuCe9rChoATQNy0wEIAwjAzXHUHxk/KE2yFdpbAc00KIKxS43bOIAp/UUz5CPzAKwBeg6k3+k94WskwKQFZUVdK1mjFIYN0GQA2xcAT2csiNWjNZuAtAS61ath+nqbFjWGFoA8jFWAse3UbVKAqSFMZ8yFLQC3BwAmMWoK3AYQDyYAjJeArRygHsgMB8QNgLx1wJUAcLpgdKM1IhXJb15vDAwFtcApA2zmgCgq3FMgbwAIfb1EL5K1E2ACQFMAVgbg5YDTPADf8OAATSOKagAaCf5rNND6Gv0wR/9GDpgJIH50wCOAm/lwHECtf2w/bFsHQDnDASbXrU3hFoAl3gCAeML/MwywlQMA5+pzHDAEoDv6UwCaCdD4HGBDB8wGAO2WYHtthA8AGJIf6+Vh0wHGLqNt5ADsWcd5KTABoN4tHXZALHl3/Ecvpm7kAI771UUsc3ZjN46NTH2Qy2sc3zngZm8K1wCgB8ANtwLjvuE/ga1/6pL6Fg7Qu/mRuaAnok7QhofUHK662pvFUAPh2nRHqxHk9M1ywP66/tfjz/Z0ALeu1N+L74BQHBgVQb0XaDZGCEDdHXO7E+pvk732t8d/4m6CkA5g9m0K6jFVVSWlLFXE6q/6sKo4wB0Ia0O0BlEDoDunbl0AEesMv7TsD7NuKgrmAMagHdx6D6QnikKhuAMBemO4gUDGMH6gvzkVRp1UViHQs3+H4Q/ogPo2hvpewMlQHKqq6wfEYBaDt8YPdV7QRc8OgVh3fzf9gRxgRp/L8kHoAd8OZv+GPrvDICsOd2VS/X3ICzPTtwjYsz9t/zm3VAVxgC76srBVT8RDWvSUB9Klm+iN2//A7EsALsMfygH4SBr5B5ewDaEwlH1l8h4Li60EsMsfO+3kAE679O7qh/xQlrpfPDqCs2Z72DKA0z2lIRxgLtP7qu+1g+KgLKHbZynxXRnHvTvg4HZLbQAHcFr8L5Z/B+JwV0kfZoCs2f/iLreVB3AAXadcUf+ssAE43VO9vgPYwHXKjQC43lG9vgMAr9PtAEA214DCAphyAKMSeNgeQDxxI8BWDuC7ZAACGL8jcDMH8GjgQmVo/boI7O+AfTIACchtAEw4QF8D2sUBsr4v2um5ZWs7ABNxBwMQARi9J3QjB+xTAki/XgzsPQ+IdgTANwFwngQgF4vxBHCKxp4csY0DsAaWC8TLCp9OLqCKPQCoNuD85Lq1HcAiEcX+Y4/PEVYahPoPxO5tYPzG8M0c4A2gyvD5lcevr2NRiiSrXB3QVsH9VoN4R6QvAJ5k5VcTZZZU7gDcD51Y2QEIwHf8E1F8WVEIBwIGgHBfDwZwgGf5y7KOfkUgy2I3AFxEezsAhOB+ACAh/x9LUNmvUZQJeAAAt8nwyg5QBZx7GgBo1JO/KkR5JAJitgWaFHDeEljZAVHmCYCTAQqU/xeaQji7Ctw5YL8aAL4ABFUAIABFWwXA0QHCeSLwJA6IM3GsDdAC+BIi9gKwnwPUPLbyApCg70sNoCL74zuYWQTiDQH8mgLAFwP4Wx6PZeYC4JkckHimALQpQCFcUiA2i6EnqAGJdxHENUDSAqCmkEUuBoijJ3BAkixpg2WjPzlSG+QuAKR+TlLgNjgxE0wSv6mwpCLwVdUAqBNAIl0MIMX+DvAGcIj0VLikLIDCbSqsAbDGATuuBpNELFsMHYuyLOrFkHQqASxrAARdC1wmAHjuB3D/5XA9DWgO2ghbA8YAsMS3CuJ6UNgbImL+D6qbQCai8ClwngSQ+O4J4XFDeh1Y0KLYUb9Us7AINtgPGAVA5+YJp51xCbx5BiwdOgegfgrM/xlNCcgEbLErPPrkaXNwIJ9tgkotINuyITkeJZoJ7oLQAODbAJh49rgaQwA0wSwDx5VaPt7tfqIW92sCVAMz93nQ6g7AiUBRUR5MXdyIzXBDuexaWlsCPGrg6g7APqjWcnQ28JiRSX2ihl/JP64CgOMPgy0ujY2+trRqA1lxRASZYRD3iK/0ybqZqNTK97gMwH0GhL84OuoAbANalOpk5mhofL6AjCXaVKJ2LR4HH1GtBMA0wS0uj48foSHw8EQdRSU6h2TXRyRTnW/UrwSA6QyADe4RGgcAVARqBEXFhT5EujlYF41fWeoXAujJgPApMDUX7KhTi5sSnwui/nB9jPbxPtLl+tVayisDAhykZOXA3EhXMUAGHjeKBgCAM4HNANgG8OkBIQA85MAWAHhiDBAewHkSgHsOpGsZALjzCfQBDlPDPpBuAiCOu7NAn1ei8DlQceoZI4mZC20GgOlbi7YBMONARWFPBWbFQgOAdwXwc8BldQssTIAk8zZAEADuFkiX6Jd2AoQHMOdMUWcLLAEgI5MAfi/GE+ZUWWEWxQEBWAngXwFDAWA4GaqCFoG4twNsAWDesbrgmASpdwEQZiPZ99WowqQAw30RUYQCENv69SrQ1wCBAJyYysy/VaAcsPRHdQHwfjmyUCdLs8itDHjpxxlQskz/KdjZ4nSNqAyQA9b40wWIOedl7QCA0WQgW59A1/+Wfj8DhDtdnlEnmF8IU1f7d8bf+/UIPV9hYh6C9QlY+nGyZfQveD3GkK8xwqgQ/p1PwEV+zLP78d8yBWYers2oFcyuA6mj/TMBCwugMkBQAIZAsgoBe/hx1y3JPE5MeYywrzTFDIGqWEogvh9+M/+FZa/HGv6lthhVQrzzZQkBW35M19ta+/NFL8TpAeDsAoAhAbouONcEU/I10P/bO+PeRmEYinenchB6ZSpCqFu///c8EttJgG4rjhPIXd4q7Z9J2/v52dAtw8P2BybtlADdBV0fEoKZ/Y/u3St/G7yFk7lvcNOaGbMX5H1DCG5fuZ/sw5mDi5B9HoB6885R/VxF/ZM/tiJY2G8HP/0S/pkJ2Lh19gohQAT38TUEfxbu8aiBXPpxBiYAgG0Ak+Chj4X8+GejcdLbuvjOPvoPXsSszk0CAFck0OJ5kf4Tl8o8K/1tdALzHx0W3w+/0ApiHoCatXkaV83rFAAD0G38NdqHxa10/yRqA40+serDVZAJgEugay8Q5gkCbptZ60bm7RGjwWXf2hfRdBvAAVCxtq8TAruD/GF3zxuB67s5UAPH6B7YMs49pV9oC7s6cwCcmAAsAo8BgoCtU7BvbEA2VPrL2r3YAnJ9EeAkoGECcAj08zH7waewFq5limdfvxfkbN4+sQHA5cAh0OvWeiq6O0U3LK2DeXH3zIsA8zIwTwEw6HyPvX4cOu4EeOIe7LN/8SN4EZj8s4eAjwAZdG3Xfin8EmteWPpGmJOAUxiAq2NAEIBD19pX57yj+xe3zieYgWFTcPEWYQ5hIeddvvh2BPAS0HBuhb6DgCjo5SmWef4ICLgVetIKawrO+JW+KloAmCNAqAdmFKxTmvPxCh/eAboHKqV+Zy7FB1DL9MDeANgdgD2g/tsAiI3BvQPQBCQg+wiEBeAfmAJBAYApkDWBwAAYADk3gfYfBiDzCIQ2AM3BXAlAA4QByLkJlEAAbBOobP2HAqhzJSDkH8dAhgS0/0bCvwGQHYGp/mch/zgI8yKgqP4iBOrsCJB/oQB4XaDysC/t3xLIIgQx/BsC+o4ogxDA+JP2jxk4fAh09XX55f1TBmASqGOnP4p/j8AxEaio5V8iMAzU4dzb8kcCQARsDF78n5IE5o372PYJgWFQ2RwAB5XeN1qfzCtyH9u+H4IlhHR5IN8KK0/mU9ifpwAgVJVHIT4D5QAY72Qe7Avd/b/w5sAhIBKGRTI11ey713Wi6vsEDIUlh+Sqrft0/v1WIArmBZ9j23UfTundLyHsp928z1viNP+Zkvg+hPeioqKioqKioqKioqKioqKioqKioqz0F87mVSWmW+UFAAAAAElFTkSuQmCC;" parent="y2d1bEIamb3KJ__hVvuo-19" vertex="1">
                    <mxGeometry x="73" y="20" width="52.17" height="52.17" as="geometry"/>
                </mxCell>
                <mxCell id="y2d1bEIamb3KJ__hVvuo-25" value="Amazon DynamoDB" style="sketch=0;outlineConnect=0;fontColor=#232F3E;gradientColor=none;strokeColor=#ffffff;fillColor=#232F3E;dashed=0;verticalLabelPosition=middle;verticalAlign=bottom;align=center;html=1;whiteSpace=wrap;fontSize=10;fontStyle=1;spacing=3;shape=mxgraph.aws4.productIcon;prIcon=mxgraph.aws4.dynamodb;" parent="1" vertex="1">
                    <mxGeometry x="-382" y="90" width="81" height="110" as="geometry"/>
                </mxCell>
                <mxCell id="y2d1bEIamb3KJ__hVvuo-26" value="Amazon DynamoDB" style="sketch=0;outlineConnect=0;fontColor=#232F3E;gradientColor=none;strokeColor=#ffffff;fillColor=#232F3E;dashed=0;verticalLabelPosition=middle;verticalAlign=bottom;align=center;html=1;whiteSpace=wrap;fontSize=10;fontStyle=1;spacing=3;shape=mxgraph.aws4.productIcon;prIcon=mxgraph.aws4.dynamodb;" parent="1" vertex="1">
                    <mxGeometry x="-199" y="90" width="81" height="110" as="geometry"/>
                </mxCell>
                <mxCell id="y2d1bEIamb3KJ__hVvuo-27" value="Amazon DynamoDB" style="sketch=0;outlineConnect=0;fontColor=#232F3E;gradientColor=none;strokeColor=#ffffff;fillColor=#232F3E;dashed=0;verticalLabelPosition=middle;verticalAlign=bottom;align=center;html=1;whiteSpace=wrap;fontSize=10;fontStyle=1;spacing=3;shape=mxgraph.aws4.productIcon;prIcon=mxgraph.aws4.dynamodb;" parent="1" vertex="1">
                    <mxGeometry x="-9" y="90" width="81" height="110" as="geometry"/>
                </mxCell>
                <mxCell id="y2d1bEIamb3KJ__hVvuo-30" style="edgeStyle=orthogonalEdgeStyle;rounded=0;orthogonalLoop=1;jettySize=auto;html=1;endArrow=none;endFill=0;" parent="1" source="y2d1bEIamb3KJ__hVvuo-6" target="y2d1bEIamb3KJ__hVvuo-25" edge="1">
                    <mxGeometry relative="1" as="geometry"/>
                </mxCell>
                <mxCell id="y2d1bEIamb3KJ__hVvuo-31" style="edgeStyle=orthogonalEdgeStyle;rounded=0;orthogonalLoop=1;jettySize=auto;html=1;endArrow=none;endFill=0;" parent="1" source="y2d1bEIamb3KJ__hVvuo-11" target="y2d1bEIamb3KJ__hVvuo-26" edge="1">
                    <mxGeometry relative="1" as="geometry"/>
                </mxCell>
                <mxCell id="y2d1bEIamb3KJ__hVvuo-32" style="edgeStyle=orthogonalEdgeStyle;rounded=0;orthogonalLoop=1;jettySize=auto;html=1;endArrow=none;endFill=0;" parent="1" source="y2d1bEIamb3KJ__hVvuo-14" target="y2d1bEIamb3KJ__hVvuo-27" edge="1">
                    <mxGeometry relative="1" as="geometry"/>
                </mxCell>
                <mxCell id="y2d1bEIamb3KJ__hVvuo-33" style="edgeStyle=orthogonalEdgeStyle;rounded=0;orthogonalLoop=1;jettySize=auto;html=1;endArrow=none;endFill=0;" parent="1" edge="1">
                    <mxGeometry relative="1" as="geometry">
                        <mxPoint x="211.48571428571404" y="90" as="targetPoint"/>
                    </mxGeometry>
                </mxCell>
                <mxCell id="2" value="" style="group" vertex="1" connectable="0" parent="1">
                    <mxGeometry x="-230" y="240" width="143" height="80" as="geometry"/>
                </mxCell>
                <mxCell id="3" value="Pub-Sub" style="shape=umlFrame;whiteSpace=wrap;html=1;" vertex="1" parent="2">
                    <mxGeometry width="143" height="80" as="geometry"/>
                </mxCell>
                <mxCell id="4" value="" style="shape=image;verticalLabelPosition=bottom;labelBackgroundColor=default;verticalAlign=top;aspect=fixed;imageAspect=0;image=data:image/png,iVBORw0KGgoAAAANSUhEUgAAAQAAAAEACAMAAABrrFhUAAAAWlBMVEVHcExzq//Q4v5My/8yU8EzVMEzVME0VsE0VMEyU8EaLWcFFVlajuErSKUiOoQBByQAkM6nz/0JFUcCWJEFDTUDdrKhudv9/f57kbROdrlGXYsBAQEApuyE3f/7XhejAAAACnRSTlMA////w47/HUbo1TGOBwAAEIVJREFUeNrsnY1ioyoQhTfZbdKMgpGoFbf3/V/zMgMqJv6Bokk3093etnvb5nycmQE05Nevd7zjHe94xzve8Y53vOMd73jHO97xjne84x3veMc73vEOtzir+JwdHwN/5gb+tqcRrh75x8efJi53ccI3z6Bvvo/2V318EIsdxbfSL/j2oPtyat9dPLRb331PooWgMOwBoRHfCL8T6T3sk2ROhON0slAghK3VG7frIdor9mGg5Gv1Oyp/JEEMzlvJfy71OjGQQXgEjfzni4tGEDYRziT/9LShEQQd/meWbxAEy4NnH/6mMQQywQsMf2uCz39YfxgPUPqfXiawEKw//qfTKxH48/kv61+bwOvpX5fAK+qnOvC5Wv9/Qf1EYJ0Z0YvqX43A56v0/74Z0ee/mwCrWeCF9ROBfzcBKBb3wvNLG2CFJPh8bf1I4PNfNsBiC7y8AZZa4OMnAFhggc+Py+sDWGKBH5ABi+YC54+fAODknwPnH6HfPwfOPyIDlvSBj58CwDMHzj+gB2gCvgDCGYBhPHsRCFMCGOMQiSxJkkxEAHwLDr5FYOUSwLiSnqH0TmQIggcF4VsE1gLAULqwpGciSUQk2s/pa0IE4+AF4LzGNKjxezPaUMmyKJMk//6+5vntFomOKTLBghSBs18NvCzLdZSe1cKgqsqySI/HY/pfmWS37+u3CeQANaZMAWDPAcC7BtbaW+lq0NM0Pf6H8VuFVA64XpXuW57bHCBLMo79gT1DFfQB0NGO0stCSVdjbpSbyJPkdr0q9Uq0JqFAIAlIBA/QIb0AeHRBfqddjfq9dB2VSgEEcNXvFAV0g/osUg7gfHUCfm3AvQZy0g5Ge690HbcuAPogRwCqIgJ37gXoO+Aj+r3agEcTgCQBo/33aMgsye8B0DuRCHBshthoKNhYFfRywMXDAaXK99+ToRyQN+6vAdQOgDoHmIN6FXy4eHoBOHsBqI4z9GMN6HVALlTxMPNjhqLUh6PytXTgFScAQwS8+mBIALesxwH4Gc6UjAN4O7ID8vXgU6cpJMEaqp6bAcgSmJMBv/mQA7LGAWgAgBEEvFaPveYg8X8bLh5eANwngmw2gEcH6AmBWhGYIqgAcDVnrqAfAeU+MK1eRQxRBIMNVLWBrQCImQBEB8D1EQAm9eGQpkWph7qb3vQ1Xhr1CIBH0cii8nI5b7EdwpSDizkAAAHkNYC8AXBrAagRlSQtTTUCywSU/WDJ1wBgxALuAM6+ANK5DugHUMtQEmMjLi0kmDanfw3yqApL/qQDThs5QMwE0OuAqwUARULcyEtLQ4DV+mXa0W8AwOAsehsAJwWgdAVw7QOADuCWvrTgtQeYsf+hE7HuGpzv6oBT5AJAzf1utASyAIjaAbwLoCWA+f+ov3HAYA5sUgPIATNmQjFkEbZ+1F3vC9BMGGoA7B6AJqAsPqB/fQC/zhdPBwwC+I6vMr/hJpkKfLi4DdCAyDUA6HeAioJavc7/wyG4A7wAgMjkowPi+Eq6lfCMQrRBtbvhYBzAehygPCD1vLB6lK8cAAEAnHwA2IuBbxpw3BYVRjY+xkpWESoXduA/3PLGAX0ADqmeEhV9ACTpX7cGeADgQlSYAmbIUZlWroWXemvwmIKIrjr30RctCvzYWKAHwKFEAGWP/kN8Wh3AL08AUJHZMxx02uqvcEuU5uxml0gBQgD1XihtjkNjCASic92aB9SBvujTX5eAdQGcvACg3QU5mYTTlqjeHbNqgwKQm7pnQJAfuHZDpPNDzf+l7EKQ7fSwNwOGJ0I+KeAJgLxuCe9rChoATQNy0wEIAwjAzXHUHxk/KE2yFdpbAc00KIKxS43bOIAp/UUz5CPzAKwBeg6k3+k94WskwKQFZUVdK1mjFIYN0GQA2xcAT2csiNWjNZuAtAS61ath+nqbFjWGFoA8jFWAse3UbVKAqSFMZ8yFLQC3BwAmMWoK3AYQDyYAjJeArRygHsgMB8QNgLx1wJUAcLpgdKM1IhXJb15vDAwFtcApA2zmgCgq3FMgbwAIfb1EL5K1E2ACQFMAVgbg5YDTPADf8OAATSOKagAaCf5rNND6Gv0wR/9GDpgJIH50wCOAm/lwHECtf2w/bFsHQDnDASbXrU3hFoAl3gCAeML/MwywlQMA5+pzHDAEoDv6UwCaCdD4HGBDB8wGAO2WYHtthA8AGJIf6+Vh0wHGLqNt5ADsWcd5KTABoN4tHXZALHl3/Ecvpm7kAI771UUsc3ZjN46NTH2Qy2sc3zngZm8K1wCgB8ANtwLjvuE/ga1/6pL6Fg7Qu/mRuaAnok7QhofUHK662pvFUAPh2nRHqxHk9M1ywP66/tfjz/Z0ALeu1N+L74BQHBgVQb0XaDZGCEDdHXO7E+pvk732t8d/4m6CkA5g9m0K6jFVVSWlLFXE6q/6sKo4wB0Ia0O0BlEDoDunbl0AEesMv7TsD7NuKgrmAMagHdx6D6QnikKhuAMBemO4gUDGMH6gvzkVRp1UViHQs3+H4Q/ogPo2hvpewMlQHKqq6wfEYBaDt8YPdV7QRc8OgVh3fzf9gRxgRp/L8kHoAd8OZv+GPrvDICsOd2VS/X3ICzPTtwjYsz9t/zm3VAVxgC76srBVT8RDWvSUB9Klm+iN2//A7EsALsMfygH4SBr5B5ewDaEwlH1l8h4Li60EsMsfO+3kAE679O7qh/xQlrpfPDqCs2Z72DKA0z2lIRxgLtP7qu+1g+KgLKHbZynxXRnHvTvg4HZLbQAHcFr8L5Z/B+JwV0kfZoCs2f/iLreVB3AAXadcUf+ssAE43VO9vgPYwHXKjQC43lG9vgMAr9PtAEA214DCAphyAKMSeNgeQDxxI8BWDuC7ZAACGL8jcDMH8GjgQmVo/boI7O+AfTIACchtAEw4QF8D2sUBsr4v2um5ZWs7ABNxBwMQARi9J3QjB+xTAki/XgzsPQ+IdgTANwFwngQgF4vxBHCKxp4csY0DsAaWC8TLCp9OLqCKPQCoNuD85Lq1HcAiEcX+Y4/PEVYahPoPxO5tYPzG8M0c4A2gyvD5lcevr2NRiiSrXB3QVsH9VoN4R6QvAJ5k5VcTZZZU7gDcD51Y2QEIwHf8E1F8WVEIBwIGgHBfDwZwgGf5y7KOfkUgy2I3AFxEezsAhOB+ACAh/x9LUNmvUZQJeAAAt8nwyg5QBZx7GgBo1JO/KkR5JAJitgWaFHDeEljZAVHmCYCTAQqU/xeaQji7Ctw5YL8aAL4ABFUAIABFWwXA0QHCeSLwJA6IM3GsDdAC+BIi9gKwnwPUPLbyApCg70sNoCL74zuYWQTiDQH8mgLAFwP4Wx6PZeYC4JkckHimALQpQCFcUiA2i6EnqAGJdxHENUDSAqCmkEUuBoijJ3BAkixpg2WjPzlSG+QuAKR+TlLgNjgxE0wSv6mwpCLwVdUAqBNAIl0MIMX+DvAGcIj0VLikLIDCbSqsAbDGATuuBpNELFsMHYuyLOrFkHQqASxrAARdC1wmAHjuB3D/5XA9DWgO2ghbA8YAsMS3CuJ6UNgbImL+D6qbQCai8ClwngSQ+O4J4XFDeh1Y0KLYUb9Us7AINtgPGAVA5+YJp51xCbx5BiwdOgegfgrM/xlNCcgEbLErPPrkaXNwIJ9tgkotINuyITkeJZoJ7oLQAODbAJh49rgaQwA0wSwDx5VaPt7tfqIW92sCVAMz93nQ6g7AiUBRUR5MXdyIzXBDuexaWlsCPGrg6g7APqjWcnQ28JiRSX2ihl/JP64CgOMPgy0ujY2+trRqA1lxRASZYRD3iK/0ybqZqNTK97gMwH0GhL84OuoAbANalOpk5mhofL6AjCXaVKJ2LR4HH1GtBMA0wS0uj48foSHw8EQdRSU6h2TXRyRTnW/UrwSA6QyADe4RGgcAVARqBEXFhT5EujlYF41fWeoXAujJgPApMDUX7KhTi5sSnwui/nB9jPbxPtLl+tVayisDAhykZOXA3EhXMUAGHjeKBgCAM4HNANgG8OkBIQA85MAWAHhiDBAewHkSgHsOpGsZALjzCfQBDlPDPpBuAiCOu7NAn1ei8DlQceoZI4mZC20GgOlbi7YBMONARWFPBWbFQgOAdwXwc8BldQssTIAk8zZAEADuFkiX6Jd2AoQHMOdMUWcLLAEgI5MAfi/GE+ZUWWEWxQEBWAngXwFDAWA4GaqCFoG4twNsAWDesbrgmASpdwEQZiPZ99WowqQAw30RUYQCENv69SrQ1wCBAJyYysy/VaAcsPRHdQHwfjmyUCdLs8itDHjpxxlQskz/KdjZ4nSNqAyQA9b40wWIOedl7QCA0WQgW59A1/+Wfj8DhDtdnlEnmF8IU1f7d8bf+/UIPV9hYh6C9QlY+nGyZfQveD3GkK8xwqgQ/p1PwEV+zLP78d8yBWYers2oFcyuA6mj/TMBCwugMkBQAIZAsgoBe/hx1y3JPE5MeYywrzTFDIGqWEogvh9+M/+FZa/HGv6lthhVQrzzZQkBW35M19ta+/NFL8TpAeDsAoAhAbouONcEU/I10P/bO+PeRmEYinenchB6ZSpCqFu///c8EttJgG4rjhPIXd4q7Z9J2/v52dAtw8P2BybtlADdBV0fEoKZ/Y/u3St/G7yFk7lvcNOaGbMX5H1DCG5fuZ/sw5mDi5B9HoB6885R/VxF/ZM/tiJY2G8HP/0S/pkJ2Lh19gohQAT38TUEfxbu8aiBXPpxBiYAgG0Ak+Chj4X8+GejcdLbuvjOPvoPXsSszk0CAFck0OJ5kf4Tl8o8K/1tdALzHx0W3w+/0ApiHoCatXkaV83rFAAD0G38NdqHxa10/yRqA40+serDVZAJgEugay8Q5gkCbptZ60bm7RGjwWXf2hfRdBvAAVCxtq8TAruD/GF3zxuB67s5UAPH6B7YMs49pV9oC7s6cwCcmAAsAo8BgoCtU7BvbEA2VPrL2r3YAnJ9EeAkoGECcAj08zH7waewFq5limdfvxfkbN4+sQHA5cAh0OvWeiq6O0U3LK2DeXH3zIsA8zIwTwEw6HyPvX4cOu4EeOIe7LN/8SN4EZj8s4eAjwAZdG3Xfin8EmteWPpGmJOAUxiAq2NAEIBD19pX57yj+xe3zieYgWFTcPEWYQ5hIeddvvh2BPAS0HBuhb6DgCjo5SmWef4ICLgVetIKawrO+JW+KloAmCNAqAdmFKxTmvPxCh/eAboHKqV+Zy7FB1DL9MDeANgdgD2g/tsAiI3BvQPQBCQg+wiEBeAfmAJBAYApkDWBwAAYADk3gfYfBiDzCIQ2AM3BXAlAA4QByLkJlEAAbBOobP2HAqhzJSDkH8dAhgS0/0bCvwGQHYGp/mch/zgI8yKgqP4iBOrsCJB/oQB4XaDysC/t3xLIIgQx/BsC+o4ogxDA+JP2jxk4fAh09XX55f1TBmASqGOnP4p/j8AxEaio5V8iMAzU4dzb8kcCQARsDF78n5IE5o372PYJgWFQ2RwAB5XeN1qfzCtyH9u+H4IlhHR5IN8KK0/mU9ifpwAgVJVHIT4D5QAY72Qe7Avd/b/w5sAhIBKGRTI11ey713Wi6vsEDIUlh+Sqrft0/v1WIArmBZ9j23UfTundLyHsp928z1viNP+Zkvg+hPeioqKioqKioqKioqKioqKioqKioqz0F87mVSWmW+UFAAAAAElFTkSuQmCC;" vertex="1" parent="2">
                    <mxGeometry x="73" y="20" width="52.17" height="52.17" as="geometry"/>
                </mxCell>
            </root>
        </mxGraphModel>
    </diagram>
</mxfile>